<svg width="26" height="30" viewBox="0 0 26 30" fill="none" xmlns="http://www.w3.org/2000/svg">
<path fill-rule="evenodd" clip-rule="evenodd" d="M13.3707 0.0847187L24.9225 5.52533C25.2313 5.6718 25.429 5.98239 25.429 6.32473V15.7236C25.429 23.3736 18.8007 26.97 13.9637 29.5977L13.4184 29.8942C13.286 29.9647 13.1413 30.0018 12.9949 30.0018C12.8501 30.0018 12.7054 29.9647 12.5731 29.8941L12.0278 29.5977C7.18899 26.97 0.5625 23.3735 0.5625 15.7235V6.3247C0.5625 5.98236 0.760156 5.67177 1.06897 5.5253L12.6207 0.0847031C12.8572 -0.0282344 13.1343 -0.0282188 13.3707 0.0847187ZM9.8295 5.98942C7.07833 5.98942 4.84067 8.22884 4.84067 10.98C4.84067 13.7312 7.07833 15.9688 9.8295 15.9688C9.8595 15.9688 9.8895 15.9688 9.9195 15.9671L10.8336 16.8812H12.1413V18.7059H13.966V20.0153L15.3971 21.4447H20.2942V16.5477L14.8165 11.0683C14.8183 11.04 14.8183 11.01 14.8183 10.98C14.8183 8.22886 12.5807 5.98944 9.8295 5.98944V5.98942ZM9.8295 7.75414C11.6066 7.75414 13.0536 9.20295 13.0377 11.1388L12.976 11.7212L18.5295 17.2782V19.68H16.1277L15.7307 19.2847V16.9412H13.906V15.1165H11.5642L10.5671 14.1212L9.82948 14.2041C8.05242 14.2041 6.60536 12.7588 6.60536 10.98C6.60536 9.20295 8.05242 7.75414 9.82948 7.75414H9.8295ZM9.90731 9.70695C9.17673 9.70695 8.5838 10.2999 8.5838 11.0305C8.5838 11.7611 9.17673 12.354 9.90733 12.354C10.6379 12.354 11.2309 11.7611 11.2309 11.0305C11.2309 10.2999 10.6379 9.70695 9.90731 9.70695Z" fill="#FF0000" fill-opacity="0.3"/>
</svg>
