<svg width="224" height="224" viewBox="0 0 224 224" fill="none" xmlns="http://www.w3.org/2000/svg">
<path d="M136.5 24.5V66.5H87.5V157.5H45.5V38.5C45.5109 34.7903 46.9894 31.2357 49.6125 28.6125C52.2357 25.9894 55.7903 24.5109 59.5 24.5H136.5Z" fill="#FFBA00"/>
<path d="M136.5 24.5V66.5H178.5L136.5 24.5Z" fill="#EA4335"/>
<path d="M178.5 66.5H136.5V164.5H178.5V66.5Z" fill="#4285F4"/>
<path d="M136.5 199.5V157.5H87.5V199.5H136.5Z" fill="#00AC47"/>
<path d="M164.5 199.5H136.5V157.5H178.5V185.5C178.5 189.213 177.025 192.774 174.399 195.399C171.774 198.025 168.213 199.5 164.5 199.5Z" fill="#0066DA"/>
<path d="M45.5 157.5H87.5V199.5H59.5C55.787 199.5 52.226 198.025 49.6005 195.399C46.975 192.774 45.5 189.213 45.5 185.5V157.5Z" fill="#188038"/>
</svg>
