<svg width="163" height="163" viewBox="0 0 163 163" fill="none" xmlns="http://www.w3.org/2000/svg">
<g clip-path="url(#clip0_258_28)">
<path d="M61.018 126.126V118.593C73.2812 111.647 77.5931 96.0782 70.6478 83.815C63.7024 71.5518 48.1334 67.24 35.8702 74.1853C23.607 81.1306 19.2951 96.6997 26.2405 108.963C28.5199 112.987 31.8461 116.316 35.8702 118.593V126.126C12.0926 127.239 0 143.318 0 154.124V163H96.8882V154.124C96.8882 143.318 84.7957 127.239 61.018 126.126Z" fill="#2A2727" fill-opacity="0.7"/>
<path d="M112.992 25.7031C99.588 25.7031 88.7205 36.5706 88.7205 49.9748C88.7205 63.379 99.588 74.2466 112.992 74.2466C126.396 74.2466 137.264 63.379 137.264 49.9748C137.264 36.5706 126.396 25.7031 112.992 25.7031ZM112.992 64.6245C104.901 64.6245 98.3426 58.0663 98.3426 49.9748C98.3426 41.8834 104.901 35.3252 112.992 35.3252C121.084 35.3252 127.642 41.8834 127.642 49.9748C127.642 58.0663 121.084 64.6245 112.992 64.6245Z" fill="#333333"/>
<path d="M163 57.4651V42.4742L151.901 41.3638C150.897 36.8227 149.099 32.493 146.593 28.5759L153.668 19.9344L143.066 9.33175L134.429 16.3993C130.51 13.8881 126.177 12.0849 121.631 11.0738L120.523 0H105.469L104.358 11.0738C99.8121 12.0824 95.4774 13.8856 91.5577 16.3993L82.9238 9.3343L72.3314 19.9369L79.4015 28.5759C76.8954 32.4956 75.0973 36.8253 74.0913 41.3663L62.9971 42.4768V57.4702L74.0811 58.5781C75.0845 63.1217 76.8826 67.454 79.3913 71.3736L72.3314 80.0126L82.934 90.6153L91.5679 83.5502C95.485 86.0691 99.8147 87.8748 104.361 88.8859L105.471 99.9598H120.526L121.636 88.8859C126.185 87.8697 130.517 86.0589 134.437 83.5375L143.073 90.6051L153.676 80.0024L146.601 71.3583C149.107 67.4438 150.902 63.1167 151.903 58.5781L163 57.4651ZM112.992 74.2414C99.588 74.2414 88.7205 63.3739 88.7205 49.9697C88.7205 36.5655 99.588 25.698 112.992 25.698C126.396 25.698 137.264 36.5655 137.264 49.9697C137.264 63.3739 126.396 74.2414 112.992 74.2414Z" fill="#E21B1B"/>
</g>
<defs>
<clipPath id="clip0_258_28">
<rect width="163" height="163" fill="white"/>
</clipPath>
</defs>
</svg>
